<?xml version="1.0" encoding="utf-8"?>
<!-- Generator: Adobe Illustrator 16.0.4, SVG Export Plug-In . SVG Version: 6.00 Build 0)  -->
<!DOCTYPE svg PUBLIC "-//W3C//DTD SVG 1.1//EN" "http://www.w3.org/Graphics/SVG/1.1/DTD/svg11.dtd">
<svg version="1.1" id="Layer_1" xmlns="http://www.w3.org/2000/svg" xmlns:xlink="http://www.w3.org/1999/xlink" x="0px" y="0px"
	 width="18.729px" height="9.557px" viewBox="0 0 18.729 9.557" enable-background="new 0 0 18.729 9.557" xml:space="preserve">
<g>
	<path d="M1.889,9.344L0.393,0.213h1.513l0.783,5.03c0.086,0.55,0.192,1.447,0.318,2.69c0.298-0.647,0.679-1.39,1.144-2.227
		l3.052-5.494h1.643L3.617,9.344H1.889z"/>
	<path d="M8.094,6.223L9.65,6.128c0,0.447,0.068,0.829,0.206,1.144c0.138,0.315,0.392,0.573,0.761,0.774
		c0.37,0.2,0.801,0.301,1.294,0.301c0.688,0,1.204-0.138,1.548-0.413s0.516-0.599,0.516-0.972c0-0.27-0.103-0.524-0.31-0.765
		c-0.212-0.241-0.729-0.537-1.552-0.89s-1.349-0.601-1.577-0.744c-0.385-0.235-0.674-0.512-0.869-0.83
		C9.473,3.416,9.375,3.05,9.375,2.638c0-0.722,0.287-1.341,0.86-1.857c0.572-0.516,1.375-0.774,2.407-0.774
		c1.146,0,2.019,0.265,2.617,0.795c0.6,0.53,0.91,1.228,0.934,2.093l-1.522,0.103c-0.022-0.55-0.218-0.985-0.584-1.307
		C13.72,1.371,13.201,1.21,12.53,1.21c-0.539,0-0.957,0.123-1.255,0.37s-0.447,0.513-0.447,0.8s0.129,0.539,0.387,0.756
		c0.172,0.149,0.616,0.378,1.333,0.688C13.74,4.34,14.49,4.747,14.8,5.045c0.493,0.476,0.74,1.055,0.74,1.736
		c0,0.453-0.14,0.897-0.417,1.333c-0.278,0.436-0.702,0.784-1.272,1.045C13.279,9.42,12.607,9.55,11.834,9.55
		c-1.055,0-1.951-0.261-2.691-0.782C8.403,8.246,8.054,7.397,8.094,6.223z"/>
	<path d="M16.598,9.344l0.369-1.763h1.763l-0.378,1.763H16.598z"/>
</g>
</svg>
