<?xml version="1.0" encoding="utf-8"?>
<!-- Generated by IcoMoon.io -->
<!DOCTYPE svg PUBLIC "-//W3C//DTD SVG 1.1//EN" "http://www.w3.org/Graphics/SVG/1.1/DTD/svg11.dtd">
<svg version="1.1" xmlns="http://www.w3.org/2000/svg" xmlns:xlink="http://www.w3.org/1999/xlink" width="10" height="10" viewBox="0 0 10 10">
<g>
</g>
	<path d="M9.909 8.034c-0-0-0-0-0-0l-3.034-3.034 3.034-3.034c0-0 0-0 0-0 0.033-0.033 0.056-0.071 0.071-0.111 0.041-0.111 0.018-0.241-0.072-0.33l-1.433-1.433c-0.089-0.089-0.219-0.113-0.33-0.071-0.041 0.015-0.079 0.039-0.112 0.071 0 0-0 0-0 0l-3.034 3.034-3.034-3.034c-0-0-0-0-0-0-0.033-0.033-0.071-0.056-0.111-0.071-0.111-0.041-0.241-0.018-0.33 0.071l-1.433 1.433c-0.089 0.089-0.113 0.219-0.072 0.33 0.015 0.041 0.039 0.079 0.071 0.111 0 0 0 0 0 0l3.034 3.034-3.034 3.034c-0 0-0 0-0 0-0.033 0.033-0.056 0.071-0.071 0.111-0.041 0.111-0.018 0.241 0.072 0.33l1.433 1.433c0.089 0.089 0.219 0.113 0.33 0.072 0.041-0.015 0.079-0.039 0.111-0.071 0-0 0-0 0-0l3.034-3.034 3.034 3.034c0 0 0 0 0 0 0.033 0.033 0.071 0.056 0.111 0.071 0.111 0.041 0.241 0.018 0.33-0.072l1.433-1.433c0.089-0.089 0.113-0.219 0.072-0.33-0.015-0.041-0.039-0.079-0.071-0.111z" fill="#000000" />
</svg>
