<svg width="20" height="20" xmlns="http://www.w3.org/2000/svg" xmlns:svg="http://www.w3.org/2000/svg">
 <g>
   <path d="m16.875,8.34167l0,-6.35l-3.14063,0l0,-1.05833c0,-0.58208 -0.47109,-1.05834 -1.04688,-1.05834l-11.51563,0c-0.57578,0 -1.04688,0.47625 -1.04688,1.05834l0,3.175c0,0.58209 0.4711,1.05834 1.04688,1.05834l11.51563,0c0.57578,0 1.04688,-0.47625 1.04688,-1.05834l0,-1.05833l2.09375,0l0,4.23333l-9.42188,0l0,2.11666l-0.52344,0c-0.2891,0 -0.52344,0.23691 -0.52344,0.52917l0,5.29166c0,0.29227 0.23434,0.52917 0.52344,0.52917l2.09375,0c0.2891,0 0.52344,-0.2369 0.52344,-0.52917l0,-5.29166c0,-0.29226 -0.23434,-0.52917 -0.52344,-0.52917l-0.52344,0l0,-1.05833l9.42188,0zm-4.1875,-6.35l-11.51563,0l0,-1.05833l11.51563,0l0,1.05833z" id="svg_19" fill="#7f7f7f"/>
 </g>
</svg>