<svg width="45" height="45" xmlns="http://www.w3.org/2000/svg" xmlns:svg="http://www.w3.org/2000/svg">
 <g>
   <path fill="#7f7f7f" id="svg_19" d="m45,19.66667l0,-14l-8.0625,0l0,-2.33333c0,-1.28333 -1.20937,-2.33334 -2.6875,-2.33334l-29.5625,0c-1.47812,0 -2.6875,1.05 -2.6875,2.33334l0,7c0,1.28334 1.20938,2.33334 2.6875,2.33334l29.5625,0c1.47813,0 2.6875,-1.05 2.6875,-2.33334l0,-2.33333l5.375,0l0,9.33333l-24.1875,0l0,4.66666l-1.34375,0c-0.74217,0 -1.34375,0.52231 -1.34375,1.16667l0,11.66666c0,0.64437 0.60158,1.16667 1.34375,1.16667l5.375,0c0.74217,0 1.34375,-0.5223 1.34375,-1.16667l0,-11.66666c0,-0.64436 -0.60158,-1.16667 -1.34375,-1.16667l-1.34375,0l0,-2.33333l24.1875,0zm-10.75,-14l-29.5625,0l0,-2.33333l29.5625,0l0,2.33333z"/> 
 </g>
</svg>