<svg width="45" height="45" xmlns="http://www.w3.org/2000/svg" xmlns:svg="http://www.w3.org/2000/svg">
 <g>
 <path fill="#7f7f7f" id="svg_1" d="m21,0c-11.59799,0 -21,8.50658 -21,19s9.40185,19 21,19c11.59799,0 21,-8.50658 21,-19s-9.40201,-19 -21,-19zm0,30.875c-1.98754,0 -3.87122,-0.40063 -5.55934,-1.11632l1.36016,-2.05126c1.28609,0.50884 2.70564,0.79258 4.19918,0.79258c3.82298,0 7.16838,-1.84871 9.00465,-4.61188l2.25102,1.22216c-2.2954,3.45377 -6.47694,5.76472 -11.25567,5.76472zm13.125,-16.625c0,1.30625 -1.18125,2.375 -2.625,2.375l-5.25,0c-1.44375,0 -2.625,-1.06875 -2.625,-2.375l-5.25,0c0,1.30625 -1.18125,2.375 -2.625,2.375l-5.25,0c-1.44375,0 -2.625,-1.06875 -2.625,-2.375l0,-3.5625c0,-0.65312 0.59062,-1.1875 1.3125,-1.1875l7.875,0c0.72187,0 1.3125,0.53438 1.3125,1.1875l0,1.1875l5.25,0l0,-1.1875c0,-0.65312 0.59063,-1.1875 1.3125,-1.1875l7.875,0c0.72187,0 1.3125,0.53438 1.3125,1.1875l0,3.5625z"/>
</g>
</svg>