<svg width="45" height="45" xmlns="http://www.w3.org/2000/svg" xmlns:svg="http://www.w3.org/2000/svg">
 <g>
  <path fill="#7f7f7f" id="svg_1" d="m20,37c11.0457,0 20,-8.28272 20,-18.5s-8.9543,-18.5 -20,-18.5s-20,8.28272 -20,18.5s8.9543,18.5 20,18.5zm0,-33.53125c8.97461,0 16.25,6.72974 16.25,15.03125s-7.27539,15.03125 -16.25,15.03125s-16.25,-6.72974 -16.25,-15.03125s7.27539,-15.03125 16.25,-15.03125zm11.25,5.78125c0.6875,0 1.25,0.52031 1.25,1.15625l0,3.46875c0,1.27188 -1.125,2.3125 -2.5,2.3125l-5,0c-1.375,0 -2.5,-1.04062 -2.5,-2.3125l-5,0c0,1.27188 -1.125,2.3125 -2.5,2.3125l-5,0c-1.375,0 -2.5,-1.04062 -2.5,-2.3125l0,-3.46875c0,-0.63594 0.5625,-1.15625 1.25,-1.15625l7.5,0c0.6875,0 1.25,0.52031 1.25,1.15625l0,1.15625l5,0l0,-1.15625c0,-0.63594 0.5625,-1.15625 1.25,-1.15625l7.5,0zm-11.25,18.5c3.64094,0 6.82703,-1.80006 8.57602,-4.49051l2.14375,1.19c-2.18617,3.36288 -6.16859,5.61302 -10.71977,5.61302c-1.89289,0 -3.68687,-0.39009 -5.29453,-1.08695l1.29539,-1.99735c1.22477,0.49553 2.57672,0.7718 3.99914,0.7718z"/>
</g>
</svg>