<?xml version="1.0" encoding="utf-8"?>
<!-- Generated by IcoMoon.io -->
<!DOCTYPE svg PUBLIC "-//W3C//DTD SVG 1.1//EN" "http://www.w3.org/Graphics/SVG/1.1/DTD/svg11.dtd">
<svg version="1.1" xmlns="http://www.w3.org/2000/svg" xmlns:xlink="http://www.w3.org/1999/xlink" width="512" height="512" viewBox="0 0 512 512">
<path d="M446.059 94.059l-60.117-60.118c-18.669-18.668-55.542-33.941-81.942-33.941h-224c-26.4 0-48 21.6-48 48v416c0 26.4 21.6 48 48 48h352c26.4 0 48-21.6 48-48v-288c0-26.4-15.273-63.273-33.941-81.941zM320 67.781c1.098 0.402 2.226 0.84 3.379 1.318 9.030 3.741 15.299 8.088 17.308 10.097l60.118 60.119c2.009 2.009 6.356 8.277 10.097 17.307 0.478 1.153 0.916 2.281 1.318 3.378h-92.22v-92.219zM416 448h-320v-384h192v128h128v256zM128 256h256v32h-256zM128 320h256v32h-256zM128 384h256v32h-256z" fill="grey"></path>
</svg>
