<svg width="45" height="45" xmlns="http://www.w3.org/2000/svg" xmlns:svg="http://www.w3.org/2000/svg">
 <g>
<path fill="black" id="svg_22" d="m33.32706,11.12957c2.8055,2.80882 5.1081,6.58908 6.67294,11.00377c-3.43702,9.69576 -10.43104,16.33332 -18.5,16.33332c-2.26068,0 -4.43682,-0.52124 -6.47421,-1.48448l2.81677,-3.979c1.19448,0.3726 2.41989,0.56348 3.65743,0.56348c3.23598,0 6.39023,-1.30085 9.12158,-3.76196c2.17382,-1.95878 4.01595,-4.58233 5.39954,-7.67148c-1.33879,-2.9893 -3.10793,-5.54056 -5.19048,-7.47728l2.49642,-3.52637zm-11.82706,20.49751c-0.82108,0 -1.61702,-0.1519 -2.37494,-0.43559l11.31629,-15.98543c0.20097,1.07045 0.30865,2.19448 0.30865,3.35437c0,7.21648 -4.1414,13.06666 -9.25,13.06666zm16.1875,-35.62708l-1.9417,0l-7.9352,11.20936c-1.99005,-0.91487 -4.11025,-1.40936 -6.3106,-1.40936c-8.06911,0 -15.06312,6.63757 -18.5,16.33333c1.54135,4.34833 3.79857,8.08031 6.54705,10.87534l-6.54705,9.24845l0,2.74287l1.94171,0l32.74579,-46.25713l0,-2.74288zm-19.65625,16.02709c1.73597,0 3.17412,1.80145 3.42871,4.15325l-3.95741,5.59029c-1.66478,-0.35975 -2.94005,-2.39131 -2.94005,-4.84355c0,-2.70622 1.55299,-4.89999 3.46875,-4.89999zm-11.05245,10.10625c1.3836,-3.08924 3.22572,-5.7128 5.39947,-7.67136c0.14157,-0.12761 0.28458,-0.25124 0.42846,-0.37261c-0.35981,1.39487 -0.55673,2.90029 -0.55673,4.47106c0,2.98716 0.71001,5.73952 1.90413,7.94014l-2.11558,2.9885c-2.02604,-1.92133 -3.74892,-4.429 -5.05975,-7.35572z"/>
 </g>
</svg>