<svg width="45" height="45" xmlns="http://www.w3.org/2000/svg" xmlns:svg="http://www.w3.org/2000/svg">
 <g>
<path fill="black" id="svg_22" d="m33.32706,13.73314c2.8055,2.17827 5.1081,5.1099 6.67294,8.53354c-3.43702,7.51917 -10.43104,12.66666 -18.5,12.66666c-2.26068,0 -4.43682,-0.40423 -6.47421,-1.15124l2.81677,-3.08575c1.19448,0.28895 2.41989,0.43698 3.65743,0.43698c3.23598,0 6.39023,-1.00882 9.12158,-2.91743c2.17382,-1.51905 4.01595,-3.55364 5.39954,-5.94931c-1.33879,-2.31823 -3.10793,-4.29676 -5.19048,-5.79871l2.49642,-2.73473zm-11.82706,15.89603c-0.82108,0 -1.61702,-0.1178 -2.37494,-0.33781l11.31629,-12.39687c0.20097,0.83014 0.30865,1.70184 0.30865,2.60135c0,5.59645 -4.1414,10.13333 -9.25,10.13333zm16.1875,-27.62917l-1.9417,0l-7.9352,8.69297c-1.99005,-0.70949 -4.11025,-1.09297 -6.3106,-1.09297c-8.06911,0 -15.06312,5.1475 -18.5,12.66667c1.54135,3.37218 3.79857,6.26636 6.54705,8.43394l-6.54705,7.17226l0,2.12713l1.94171,0l32.74579,-35.87287l0,-2.12713zm-19.65625,12.42917c1.73597,0 3.17412,1.39704 3.42871,3.22089l-3.95741,4.33533c-1.66478,-0.27899 -2.94005,-1.85449 -2.94005,-3.75622c0,-2.0987 1.55299,-3.8 3.46875,-3.8zm-11.05245,7.8375c1.3836,-2.39574 3.22572,-4.43033 5.39947,-5.94921c0.14157,-0.09896 0.28458,-0.19484 0.42846,-0.28897c-0.35981,1.08173 -0.55673,2.24921 -0.55673,3.46735c0,2.31657 0.71001,4.45105 1.90413,6.15766l-2.11558,2.31761c-2.02604,-1.49001 -3.74892,-3.43473 -5.05975,-5.70444z"/>
 </g>
</svg>