<svg width="20" height="20" xmlns="http://www.w3.org/2000/svg" xmlns:svg="http://www.w3.org/2000/svg">
 <g>
  <path fill="green" id="svg_1" d="m0,0l6.1875,0l0,5.71875l-6.1875,0l0,-5.71875z"/>
  <path id="svg_2" fill="green" d="m13.875,0l6.1875,0l0,5.65625l-6.1875,0l0,-5.65625z"/>
  <path id="svg_3" fill="black" d="m7.03125,0.0625l6.09375,0l0,5.6875l-6.09375,0l0,-5.6875z"/>
  <path d="m18.25887,12.46281l0,-4.6l-3.04673,0l0,-0.76666c0,-0.42166 -0.45701,-0.76667 -1.01558,-0.76667l-11.17135,0c-0.55857,0 -1.01558,0.345 -1.01558,0.76667l0,2.3c0,0.42167 0.45701,0.76667 1.01558,0.76667l11.17135,0c0.55857,0 1.01558,-0.345 1.01558,-0.76667l0,-0.76667l2.03115,0l0,3.06667l-9.14019,0l0,1.53333l-0.50779,0c-0.28045,0 -0.50779,0.17162 -0.50779,0.38334l0,3.83336c0,0.21172 0.22733,0.38334 0.50779,0.38334l2.03116,0c0.28045,0 0.50779,-0.17161 0.50779,-0.38334l0,-3.83336c0,-0.21172 -0.22733,-0.38334 -0.50779,-0.38334l-0.50779,0l0,-0.76667l9.14019,0l0.00001,0zm-4.06231,-4.6l-11.17135,0l0,-0.76666l11.17135,0l0,0.76666z" id="svg_19" fill="#7f7f7f"/>
 </g>
</svg>