<?xml version="1.0" encoding="iso-8859-1"?>
<!-- Generator: Adobe Illustrator 18.1.1, SVG Export Plug-In . SVG Version: 6.00 Build 0)  -->
<svg version="1.1" id="Capa_1" xmlns="http://www.w3.org/2000/svg" xmlns:xlink="http://www.w3.org/1999/xlink" x="0px" y="0px"
	 viewBox="0 0 454.647 454.647" style="enable-background:new 0 0 454.647 454.647;" xml:space="preserve">
<g>
	<g>
		<path style="fill:#ff0000;" d="M250.104,139.161C219.971,46.057,262.549,0,262.549,0S122.77,67.183,81.339,248.255
			c-17.42-25.06-32.62-38.773-30.889-34.286c18.696,48.422-23.557,70.109-22.996,121.156
			c0.569,51.039,88.675,109.459,88.675,109.459c0.008-0.024,0.016-0.049,0.024-0.073c3.471,2.569,7.137,4.983,10.974,7.259
			c-3.284-3.902-6.365-7.893-9.218-11.965c-9.551-13.632-16.257-28.011-16.412-41.87c-0.301-27.345,11.656-46.268,19.972-65.394
			c7.21-16.566,11.697-33.287,3.024-55.762c-1.366-3.536,7.828,4.276,20.313,20.029c24.353-66.053,48.341-123.286,48.341-123.286
			s0.618,89.91,31.092,147.525c28.604,54.079,26.889,81.855,26.889,81.855c52.031-49.739,69.434-128.781,69.434-128.781
			c18.915,16.68,29.791,37.879,35.912,59.168c12.892,44.813-13.745,89.853-14.339,94.21c-0.252,1.813-0.715,3.503-1.105,5.235
			c-1.821,8.177-5.097,15.485-9.608,21.915c4.885-3.105,9.519-6.527,13.981-10.144c0.008,0.024,0.016,0.049,0.024,0.073
			c0,0,81.204-58.42,81.765-109.467c0.561-51.039-41.691-72.726-22.996-121.156c1.618-4.194-10.738,7.478-25.629,29.499
			c-14.745-45.479-24.191-82.237-73.466-125.7c0,0,9.112,98.868-43.26,170.456C261.85,288.231,280.245,232.274,250.104,139.161z"/>
	</g>
</g>
</svg>
