<svg width="15" height="15" xmlns="http://www.w3.org/2000/svg" xmlns:svg="http://www.w3.org/2000/svg">
 <g>
   <rect stroke="null" id="svg_18" height="15" width="2.25" y="0.75" x="13.375" stroke-width="5" fill="#d3d3d3"/>
  <rect id="svg_2" stroke="null" height="15" width="2.25" y="0.875" x="5.25" stroke-width="5" fill="#d3d3d3"/>
  <rect id="svg_3" stroke="null" height="15" width="2.25" y="0.875" x="1.25" stroke-width="5" fill="#d3d3d3"/>
  <rect id="svg_4" stroke="null" height="15" width="2.25" y="0.875" x="9.5" stroke-width="5" fill="#d3d3d3"/>
  <path id="svg_5" d="m15.49664,12.36985c-0.00005,-0.00005 -0.00011,-0.00011 -0.00016,-0.00013l-4.24668,-4.05723l4.24668,-4.05723c0.00005,-0.00005 0.00011,-0.00007 0.00016,-0.00012c0.04572,-0.0437 0.07877,-0.09474 0.09996,-0.1491c0.05805,-0.14858 0.02493,-0.32236 -0.10012,-0.44184l-2.0061,-1.91657c-0.12506,-0.11946 -0.3069,-0.15106 -0.46245,-0.0956c-0.05687,0.02025 -0.11032,0.05183 -0.15609,0.09547c0,0.00006 -0.00006,0.00008 -0.00011,0.00013l-4.24673,4.05725l-4.24673,-4.05722c-0.00005,-0.00006 -0.00008,-0.00008 -0.00013,-0.00013c-0.04574,-0.04365 -0.09917,-0.07523 -0.15604,-0.09547c-0.15557,-0.05548 -0.33742,-0.02385 -0.46247,0.0956l-2.00613,1.91659c-0.12506,0.11948 -0.15814,0.29324 -0.1001,0.44181c0.02122,0.05433 0.05427,0.10542 0.09996,0.1491c0.00005,0.00003 0.00008,0.00008 0.00014,0.00012l4.24675,4.05721l-4.24675,4.05726c-0.00003,0.00006 -0.00009,0.00008 -0.00011,0.00012c-0.04568,0.04371 -0.07874,0.09474 -0.09999,0.14908c-0.05807,0.14858 -0.02496,0.32236 0.1001,0.44183l2.00613,1.91657c0.12509,0.11948 0.30693,0.15109 0.46247,0.09563c0.05687,-0.02027 0.11032,-0.05185 0.15607,-0.0955c0.00003,-0.00005 0.00008,-0.00008 0.00013,-0.00013l4.24673,-4.05722l4.24673,4.05722c0.00005,0.00003 0.00011,0.00008 0.00017,0.00011c0.04577,0.04367 0.09917,0.07526 0.15603,0.09552c0.15554,0.05546 0.33744,0.02385 0.46245,-0.09563l2.0061,-1.9166c0.12506,-0.11947 0.15817,-0.29325 0.10012,-0.44183c-0.02122,-0.05434 -0.05427,-0.10537 -0.09998,-0.14907l-0.00001,0.00001z" fill="#7f7f7f"/>
 </g>
</svg>