<svg width="45" height="45" xmlns="http://www.w3.org/2000/svg" xmlns:svg="http://www.w3.org/2000/svg">
 <g>
  <rect fill="#d3d3d3" stroke="null" stroke-width="5" x="1" y="3.5" width="6" height="38" id="svg_14"/>
   <rect fill="#d3d3d3" stroke="null" stroke-width="5" x="14" y="3.5" width="6" height="38" id="svg_16"/>
   <rect fill="#d3d3d3" stroke="null" stroke-width="5" x="27" y="3.5" width="6" height="38" id="svg_15"/>
   <rect fill="#d3d3d3" stroke="null" stroke-width="5" x="39" y="3.5" width="6" height="38" id="svg_18"/>
   <path fill="#7f7f7f" id="svg_22" d="m40.65345,31.29838c-0.00014,-0.00011 -0.00029,-0.00023 -0.00043,-0.00029l-11.52742,-8.79739l11.52742,-8.79739c0.00014,-0.0001 0.00029,-0.00015 0.00043,-0.00027c0.1241,-0.09475 0.21383,-0.20543 0.27134,-0.32329c0.15757,-0.32216 0.06768,-0.69897 -0.27177,-0.95805l-5.44547,-4.15574c-0.33947,-0.25902 -0.83308,-0.32754 -1.2553,-0.2073c-0.15436,0.0439 -0.29946,0.11238 -0.42369,0.20701c0,0.00012 -0.00016,0.00017 -0.00031,0.00029l-11.52756,8.79743l-11.52756,-8.79737c-0.00014,-0.00012 -0.00022,-0.00017 -0.00036,-0.00029c-0.12417,-0.09464 -0.26918,-0.16313 -0.42356,-0.20701c-0.42229,-0.1203 -0.91591,-0.05171 -1.25536,0.2073l-5.44554,4.15579c-0.33947,0.25907 -0.42927,0.63583 -0.27172,0.95799c0.0576,0.1178 0.14733,0.22858 0.27134,0.32329c0.00014,0.00006 0.00022,0.00017 0.00038,0.00027l11.52763,8.79733l-11.52763,8.79745c-0.00009,0.00012 -0.00024,0.00017 -0.00031,0.00027c-0.12401,0.09477 -0.21374,0.20543 -0.27141,0.32325c-0.15762,0.32216 -0.06775,0.69897 0.27172,0.95803l5.44554,4.15574c0.33954,0.25907 0.83315,0.32762 1.25536,0.20736c0.15438,-0.04395 0.29946,-0.11243 0.42364,-0.20707c0.00007,-0.00011 0.00022,-0.00017 0.00036,-0.00029l11.52756,-8.79737l11.52756,8.79737c0.00014,0.00006 0.00031,0.00017 0.00046,0.00023c0.12423,0.0947 0.26918,0.16319 0.42354,0.20713c0.42222,0.12026 0.91598,0.05171 1.2553,-0.20736l5.44547,-4.1558c0.33947,-0.25905 0.42934,-0.63587 0.27177,-0.95803c-0.05758,-0.11782 -0.14731,-0.22848 -0.27141,-0.32324l-0.00001,0.00002z"/>
</g>
</svg>