<svg width="60" height="45" xmlns="http://www.w3.org/2000/svg" xmlns:svg="http://www.w3.org/2000/svg">
 <g>
   <rect id="svg_14" height="38" width="6" y="3.5" x="1" stroke-width="5" stroke="null" fill="#3f3f3f"/>
   <rect id="svg_16" height="38" width="6" y="3.5" x="14" stroke-width="5" stroke="null" fill="#3f3f3f"/>
   <rect id="svg_15" height="38" width="6" y="3.5" x="26" stroke-width="5" stroke="null" fill="#3f3f3f"/>
   <rect id="svg_18" height="38" width="6" y="3.5" x="38" stroke-width="5" stroke="null" fill="#3f3f3f"/>
  <path stroke="null" fill="3f3f3f" d="m47.44857,6.30996l-4.3483,13.80801c-0.33962,1.07838 -0.33962,2.82701 0,3.90539l4.3483,13.80801c0.33962,1.07842 0.89025,1.07842 1.22988,0c0.33966,-1.07839 0.33966,-2.82701 0,-3.90544l-2.86373,-9.09368l8.33638,0c0.4803,0 0.86967,-1.23633 0.86967,-2.76161c0,-1.52519 -0.38936,-2.76161 -0.86967,-2.76161l-8.33638,0l2.8637,-9.09368c0.1698,-0.53921 0.25474,-1.24599 0.25474,-1.95274s-0.0849,-1.41348 -0.25471,-1.95269c-0.33965,-1.07851 -0.89025,-1.07851 -1.22988,0l0,0l0,0.00002l0,0.00001l-0.00001,0l0,0.00001l0.00001,0z" id="svg_19" transform="rotate(0.0185529962182045 48.99613189699941,21.947410583499195) "/> 
 </g>
</svg>