<svg width="45" height="45" xmlns="http://www.w3.org/2000/svg" xmlns:svg="http://www.w3.org/2000/svg">
 <g>
 <path fill="black" id="svg_19" d="m20,4c-8.72336,0 -16.28445,7.51806 -20,18.5c3.71555,10.98193 11.27664,18.5 20,18.5c8.7232,0 16.2843,-7.51807 20,-18.5c-3.71547,-10.98194 -11.2768,-18.5 -20,-18.5zm9.86133,9.81101c2.35008,2.2185 4.34149,5.19006 5.83727,8.68899c-1.49578,3.49893 -3.48726,6.47049 -5.83735,8.68909c-2.95289,2.78748 -6.36289,4.2609 -9.86125,4.2609c-3.49844,0 -6.90844,-1.47342 -9.86133,-4.26101c-2.35,-2.21839 -4.34141,-5.18996 -5.83727,-8.68899c1.49578,-3.49903 3.48727,-6.4706 5.83727,-8.68899c0.15305,-0.14453 0.30766,-0.28455 0.4632,-0.42202c-0.38898,1.57989 -0.60187,3.28501 -0.60187,5.06414c0,8.17377 4.47719,14.8 10,14.8s10,-6.62624 10,-14.8c0,-1.77913 -0.21289,-3.48425 -0.60188,-5.06427c0.15547,0.13747 0.31008,0.27762 0.46321,0.42215zm-9.86133,2.79211c0,3.06524 -1.67891,5.55001 -3.75,5.55001s-3.75,-2.48477 -3.75,-5.55001s1.67891,-5.54998 3.75,-5.54998s3.75,2.48477 3.75,5.54998z"/>
 </g>
</svg>