<svg width="20" height="20" xmlns="http://www.w3.org/2000/svg" xmlns:svg="http://www.w3.org/2000/svg">
 <g>
      <path fill="#7f7f7f" id="svg_19" d="m16.875,8.34167l0,-6.35l-3.14063,0l0,-1.05833c0,-0.58208 -0.47109,-1.05834 -1.04688,-1.05834l-11.51563,0c-0.57578,0 -1.04688,0.47625 -1.04688,1.05834l0,3.175c0,0.58209 0.4711,1.05834 1.04688,1.05834l11.51563,0c0.57578,0 1.04688,-0.47625 1.04688,-1.05834l0,-1.05833l2.09375,0l0,4.23333l-9.42188,0l0,2.11666l-0.52344,0c-0.2891,0 -0.52344,0.23691 -0.52344,0.52917l0,5.29166c0,0.29227 0.23434,0.52917 0.52344,0.52917l2.09375,0c0.2891,0 0.52344,-0.2369 0.52344,-0.52917l0,-5.29166c0,-0.29226 -0.23434,-0.52917 -0.52344,-0.52917l-0.52344,0l0,-1.05833l9.42188,0l0.00001,0zm-4.1875,-6.35l-11.51563,0l0,-1.05833l11.51563,0l0,1.05833z"/>
  <path fill="rgba(255,0,0,0.5)" id="svg_22" d="m15.61547,12.32143c-0.00005,-0.00005 -0.00011,-0.00011 -0.00017,-0.00014l-4.4742,-4.13308l4.4742,-4.13308c0.00005,-0.00005 0.00011,-0.00007 0.00017,-0.00013c0.04817,-0.04451 0.08299,-0.09651 0.10532,-0.15188c0.06116,-0.15135 0.02627,-0.32838 -0.10548,-0.4501l-2.11358,-1.9524c-0.13176,-0.12169 -0.32335,-0.15388 -0.48723,-0.09739c-0.05991,0.02062 -0.11623,0.0528 -0.16445,0.09725c0,0.00006 -0.00006,0.00008 -0.00012,0.00014l-4.47425,4.13309l-4.47425,-4.13307c-0.00005,-0.00006 -0.00009,-0.00008 -0.00014,-0.00014c-0.04819,-0.04446 -0.10448,-0.07664 -0.1644,-0.09725c-0.16391,-0.05652 -0.3555,-0.02429 -0.48725,0.09739l-2.11361,1.95242c-0.13176,0.12171 -0.16661,0.29872 -0.10546,0.45007c0.02236,0.05534 0.05718,0.10739 0.10532,0.15188c0.00005,0.00003 0.00009,0.00008 0.00015,0.00013c1.49143,1.37768 2.98286,2.75537 4.47428,4.13305l-4.47428,4.1331c-0.00003,0.00006 -0.00009,0.00008 -0.00012,0.00013c-0.04813,0.04452 -0.08296,0.09651 -0.10534,0.15187c-0.06118,0.15135 -0.0263,0.32838 0.10546,0.45009l2.11361,1.9524c0.13179,0.12171 0.32337,0.15392 0.48725,0.09742c0.05992,-0.02065 0.11623,-0.05282 0.16443,-0.09728c0.00003,-0.00005 0.00009,-0.00008 0.00014,-0.00014l4.47425,-4.13307l4.47425,4.13307c0.00005,0.00003 0.00012,0.00008 0.00018,0.00011c0.04822,0.04449 0.10448,0.07667 0.16439,0.09731c0.16388,0.0565 0.35552,0.02429 0.48723,-0.09742l2.11358,-1.95242c0.13176,-0.1217 0.16664,-0.29874 0.10548,-0.45009c-0.02235,-0.05535 -0.05718,-0.10734 -0.10534,-0.15186l0,0.00001z"/>
 </g>
</svg>