<svg width="45" height="45" xmlns="http://www.w3.org/2000/svg" xmlns:svg="http://www.w3.org/2000/svg">
 <g>
     <path transform="rotate(179.45948791503906 24.5,21) " d="m4,0l41,0l0,6.00001l-41,0l0,-6.00001zm15.375,9l25.625,0l0,5.99998l-25.625,0l0,-5.99998zm0,9l25.625,0l0,5.99998l-25.625,0l0,-5.99998zm0,9.00001l25.625,0l0,5.99998l-25.625,0l0,-5.99998zm-15.375,8.99998l41,0l0,6.00002l-41,0l0,-6.00002zm10.25,-23.99998l0,18.00001l-10.25,-9l10.25,-9l0,-0.00001z" id="svg_22" fill="black"/>
 </g>
</svg>