<svg width="60" height="45" xmlns="http://www.w3.org/2000/svg" xmlns:svg="http://www.w3.org/2000/svg">
 <g>
   <rect fill="#3f3f3f" stroke="null" stroke-width="5" x="1" y="3.5" width="6" height="38" id="svg_14"/>
   <rect fill="#3f3f3f" stroke="null" stroke-width="5" x="11" y="3.5" width="6" height="38" id="svg_16"/>
   <rect fill="#3f3f3f" stroke="null" stroke-width="5" x="20" y="3.5" width="6" height="38" id="svg_15"/>
   <rect fill="#3f3f3f" stroke="null" stroke-width="5" x="29" y="3.5" width="6" height="38" id="svg_18"/>
   <path stroke="null" transform="rotate(-178.82675170898438 44.996131896972656,21.94611740112304) " id="svg_19" d="m42.42108,6.30866l-7.23531,13.80801c-0.56511,1.07838 -0.56511,2.82701 0,3.90539l7.23531,13.80801c0.56511,1.07842 1.48133,1.07842 2.04645,0c0.56517,-1.07839 0.56517,-2.82701 0,-3.90544l-4.76507,-9.09368l13.87124,0c0.79919,0 1.44707,-1.23633 1.44707,-2.76161c0,-1.52519 -0.64787,-2.76161 -1.44707,-2.76161l-13.87124,0l4.76503,-9.09368c0.28254,-0.53921 0.42388,-1.24599 0.42388,-1.95274s-0.14128,-1.41348 -0.42382,-1.95269c-0.56516,-1.07851 -1.48133,-1.07851 -2.04644,0l0,0l-0.00001,0.00002l0,0.00001l-0.00001,0z" fill="3f3f3f"/> </g>
</svg>