<svg width="10" height="10" xmlns="http://www.w3.org/2000/svg" xmlns:svg="http://www.w3.org/2000/svg">
 <g>
        <path stroke="null" fill="#7f7f7f" id="svg_1" d="m8.66618,7.98533l-1.87394,-1.89044c-0.19372,-0.20679 -0.4009,-0.30173 -0.56826,-0.29256c0.44236,-0.6146 0.70956,-1.41195 0.70956,-2.28341c0,-1.94345 -1.32826,-3.51891 -2.96676,-3.51891c-1.63849,0 -2.96676,1.57546 -2.96676,3.51891c0,1.94345 1.32826,3.51891 2.96676,3.51891c0.73472,0 1.40696,-0.31694 1.92513,-0.84164c-0.00772,0.19851 0.07232,0.44425 0.24666,0.67402l1.59382,2.22271c0.27289,0.35964 0.71869,0.38996 0.99062,0.06741s0.2464,-0.8513 -0.05682,-1.17499l0,-0.00001zm-4.69941,-2.12047c-1.09232,0 -1.97784,-1.05033 -1.97784,-2.34594s0.88552,-2.34594 1.97784,-2.34594s1.97784,1.05032 1.97784,2.34594s-0.88551,2.34594 -1.97784,2.34594zm-1.48338,-2.93243l2.96676,0l0,1.17297l-2.96676,0l0,-1.17297z"/>
 </g>
</svg>