<svg width="45" height="45" xmlns="http://www.w3.org/2000/svg" xmlns:svg="http://www.w3.org/2000/svg">
 <g>
     <path fill="#7f7f7f" id="svg_1" d="m40.51515,33.07344l-9.65922,-7.8298c-0.99853,-0.85648 -2.06643,-1.24969 -2.92908,-1.21174c2.28012,-2.54553 3.65745,-5.84796 3.65745,-9.45736c0,-8.04932 -6.8465,-14.57455 -15.29215,-14.57455c-8.44557,0 -15.29215,6.52522 -15.29215,14.57455c0,8.04933 6.8465,14.57455 15.29215,14.57455c3.78712,0 7.25214,-1.31269 9.92301,-3.4859c-0.03982,0.82217 0.37275,1.83996 1.2714,2.79163l8.21531,9.20595c1.40664,1.48956 3.70444,1.61512 5.10614,0.27919s1.27005,-3.5259 -0.29286,-4.86653zm-24.223,-8.78253c-5.63038,0 -10.19477,-4.3502 -10.19477,-9.71637s4.56439,-9.71636 10.19477,-9.71636s10.19477,4.3502 10.19477,9.71636s-4.56431,9.71637 -10.19477,9.71637zm2.54869,-17.00364l-5.09738,0l0,4.85818l-5.09738,0l0,4.85818l5.09738,0l0,4.85818l5.09738,0l0,-4.85818l5.09738,0l0,-4.85818l-5.09738,0l0,-4.85818z"/>
 </g>
</svg>