<svg width="20" height="20" xmlns="http://www.w3.org/2000/svg" xmlns:svg="http://www.w3.org/2000/svg">
 <g>
    <path d="m16.56211,13.43583l-3.98739,-3.1808c-0.4122,-0.34794 -0.85304,-0.50768 -1.20915,-0.49226c0.94125,-1.0341 1.50982,-2.37569 1.50982,-3.84198c0,-3.26998 -2.82628,-5.9208 -6.3127,-5.9208c-3.48639,0 -6.3127,2.65082 -6.3127,5.9208c0,3.26998 2.82628,5.9208 6.3127,5.9208c1.56335,0 2.99373,-0.53327 4.09629,-1.41612c-0.01644,0.334 0.15387,0.74747 0.52484,1.13408l3.39133,3.73985c0.58067,0.60512 1.52922,0.65613 2.10785,0.11342s0.52429,-1.43237 -0.12089,-1.97699l0,0.00001zm-9.99941,-3.56784c-2.32426,0 -4.20847,-1.76724 -4.20847,-3.9472s1.88421,-3.9472 4.20847,-3.9472s4.20847,1.76724 4.20847,3.9472s-1.88418,3.9472 -4.20847,3.9472zm1.05212,-6.9076l-2.10423,0l0,1.9736l-2.10423,0l0,1.9736l2.10423,0l0,1.9736l2.10423,0l0,-1.9736l2.10423,0l0,-1.9736l-2.10423,0l0,-1.9736z" id="svg_1" fill="#7f7f7f"/>
 </g>
</svg>