<svg width="45" height="45" xmlns="http://www.w3.org/2000/svg" xmlns:svg="http://www.w3.org/2000/svg">
 <g>
    <path fill="#7f7f7f" id="svg_1" d="m16.69598,13.41332l-4.10235,-3.17546c-0.42408,-0.34735 -0.87763,-0.50683 -1.244,-0.49143c0.96839,-1.03237 1.55335,-2.37171 1.55335,-3.83554c0,-3.2645 -2.90776,-5.91087 -6.4947,-5.91087c-3.5869,0 -6.4947,2.64638 -6.4947,5.91087c0,3.2645 2.90777,5.91087 6.4947,5.91087c1.60842,0 3.08004,-0.53238 4.21439,-1.41374c-0.01691,0.33344 0.15831,0.74622 0.53997,1.13218l3.48911,3.73358c0.59741,0.60411 1.57331,0.65503 2.16861,0.11323s0.53939,-1.42997 -0.12438,-1.97368zm-10.2877,-3.56186c-2.39127,0 -4.3298,-1.76427 -4.3298,-3.94058s1.93853,-3.94058 4.3298,-3.94058s4.3298,1.76427 4.3298,3.94058s-1.9385,3.94058 -4.3298,3.94058zm-3.24735,-4.92573l6.4947,0l0,1.97029l-6.4947,0l0,-1.97029z"/>
 </g>
</svg>