<svg width="10" height="10" xmlns="http://www.w3.org/2000/svg" xmlns:svg="http://www.w3.org/2000/svg">
 <g>
     <path d="m9.78275,8.42499l-2.37529,-1.99453c-0.24555,-0.21818 -0.50815,-0.31834 -0.72029,-0.30867c0.5607,-0.64844 0.8994,-1.48969 0.8994,-2.40913c0,-2.05045 -1.68362,-3.71266 -3.76048,-3.71266c-2.07684,0 -3.76048,1.66221 -3.76048,3.71266c0,2.05045 1.68362,3.71266 3.76048,3.71266c0.93129,0 1.78337,-0.33439 2.44016,-0.88798c-0.00979,0.20944 0.09166,0.4687 0.31265,0.71113l2.02022,2.34509c0.34591,0.37944 0.91096,0.41143 1.25565,0.07112s0.31232,-0.89817 -0.07202,-1.23968l0,0zm-5.95666,-2.23723c-1.38456,0 -2.50699,-1.10815 -2.50699,-2.47511s1.12242,-2.47511 2.50699,-2.47511s2.50699,1.10815 2.50699,2.47511s-1.1224,2.47511 -2.50699,2.47511zm0.62675,-4.33144l-1.25349,0l0,1.23755l-1.25349,0l0,1.23755l1.25349,0l0,1.23755l1.25349,0l0,-1.23755l1.25349,0l0,-1.23755l-1.25349,0l0,-1.23755z" id="svg_1" fill="#7f7f7f"/>
 </g>
</svg>