<svg width="45" height="45" xmlns="http://www.w3.org/2000/svg" xmlns:svg="http://www.w3.org/2000/svg">
 <g>
     <path fill="#7f7f7f" id="svg_1" d="m41.5078,33.93192l-9.90187,-8.03303c-1.02361,-0.87871 -2.11834,-1.28213 -3.00266,-1.24319c2.3374,-2.61161 3.74933,-5.99975 3.74933,-9.70284c0,-8.25826 -7.01849,-14.95285 -15.6763,-14.95285c-8.65772,0 -15.6763,6.69459 -15.6763,14.95285c0,8.25826 7.01849,14.95285 15.6763,14.95285c3.88225,0 7.43432,-1.34677 10.17229,-3.57638c-0.04082,0.84351 0.38211,1.88772 1.30334,2.86409l8.42168,9.44491c1.44197,1.52823 3.7975,1.65704 5.23441,0.28644s1.30195,-3.61742 -0.30022,-4.99285zm-24.8315,-9.0105c-5.77182,0 -10.45086,-4.46312 -10.45086,-9.96857s4.67905,-9.96857 10.45086,-9.96857s10.45087,4.46311 10.45087,9.96857s-4.67897,9.96857 -10.45087,9.96857zm-7.83815,-12.46071l15.6763,0l0,4.98428l-15.6763,0l0,-4.98428z"/>
 </g>
</svg>