<svg width="20" height="20" xmlns="http://www.w3.org/2000/svg" xmlns:svg="http://www.w3.org/2000/svg">
 <g>
  <path d="m13.42177,4.83368c1.24162,0.87417 2.26068,2.05068 2.95323,3.42464c-1.52111,3.01756 -4.61644,5.08333 -8.1875,5.08333c-1.0005,0 -1.96359,-0.16222 -2.86528,-0.46201l1.24661,-1.23836c0.52864,0.11596 1.07096,0.17537 1.61866,0.17537c1.43214,0 2.82811,-0.40486 4.03692,-1.17081c0.96206,-0.60962 1.77733,-1.42613 2.38966,-2.38755c-0.5925,-0.93034 -1.37547,-1.72436 -2.29714,-2.32711l1.10484,-1.09749l0,0zm-5.23427,6.37933c-0.36338,0 -0.71564,-0.04728 -1.05107,-0.13557l5.00822,-4.97506c0.08894,0.33315 0.1366,0.68298 0.1366,1.04396c0,2.24595 -1.83285,4.06667 -4.09375,4.06667l0,0zm7.16406,-11.08802l-0.85933,0l-3.51186,3.48863c-0.88073,-0.28473 -1.81906,-0.43863 -2.79287,-0.43863c-3.57113,0 -6.66645,2.06577 -8.1875,5.08333c0.68215,1.35331 1.68112,2.51479 2.89751,3.38467l-2.89751,2.87834l0,0.85365l0.85934,0l14.49222,-14.39636l0,-0.85365l0,0.00001zm-8.69922,4.98803c0.76828,0 1.40476,0.56066 1.51744,1.29259l-1.75142,1.73984c-0.73678,-0.11196 -1.30117,-0.74423 -1.30117,-1.50743c0,-0.84224 0.6873,-1.525 1.53516,-1.525zm-4.89146,3.14531c0.61234,-0.96145 1.4276,-1.77797 2.38963,-2.38752c0.06265,-0.03972 0.12595,-0.07819 0.18962,-0.11597c-0.15924,0.43412 -0.24639,0.90264 -0.24639,1.3915c0,0.92968 0.31423,1.78628 0.84271,2.47117l-0.93629,0.93009c-0.89666,-0.59797 -1.65915,-1.37841 -2.23928,-2.28928l0,0z" id="svg_22" fill="#7f7f7f"/>
 </g>
</svg>