<?xml version="1.0" encoding="utf-8"?>
<!-- Generated by IcoMoon.io -->
<!DOCTYPE svg PUBLIC "-//W3C//DTD SVG 1.1//EN" "http://www.w3.org/Graphics/SVG/1.1/DTD/svg11.dtd">
<svg version="1.1" xmlns="http://www.w3.org/2000/svg" xmlns:xlink="http://www.w3.org/1999/xlink" width="10" height="10" viewBox="0 0 10 10">
<g>
</g>
	<path d="M5 10c-2.761 0-5-2.238-5-5 0-2.761 2.239-5 5-5s5 2.239 5 5c0 2.762-2.239 5-5 5zM5 1.25c-2.071 0-3.75 1.679-3.75 3.75s1.679 3.75 3.75 3.75 3.75-1.679 3.75-3.75-1.679-3.75-3.75-3.75zM5 2.5c-1.036 0-1.875 0.84-1.875 1.875h1.25c0-0.345 0.28-0.625 0.625-0.625s0.625 0.28 0.625 0.625-0.28 0.625-0.625 0.625c-0.024 0-0.1 0-0.313 0-0.173 0-0.313 0.14-0.313 0.313v0.938h1.25v-0.115c0.726-0.258 1.25-0.945 1.25-1.76 0-1.035-0.839-1.875-1.875-1.875zM5 6.875h-0.625v0.625h1.25v-0.625z" fill="#000000" />
</svg>
