<?xml version="1.0" encoding="utf-8"?>
<!-- Generator: Adobe Illustrator 16.0.4, SVG Export Plug-In . SVG Version: 6.00 Build 0)  -->
<!DOCTYPE svg PUBLIC "-//W3C//DTD SVG 1.1//EN" "http://www.w3.org/Graphics/SVG/1.1/DTD/svg11.dtd">
<svg version="1.1" id="Layer_1" xmlns:svg="http://www.w3.org/2000/svg"
	 xmlns="http://www.w3.org/2000/svg" xmlns:xlink="http://www.w3.org/1999/xlink" x="0px" y="0px" width="20px" height="20px"
	 viewBox="0 0 20 20" enable-background="new 0 0 20 20" xml:space="preserve">
<g>
	<path id="svg_1" fill="#7F7F7F" d="M16.695,13.413l-4.102-3.175c-0.424-0.347-0.878-0.507-1.244-0.491
		c0.969-1.033,1.553-2.372,1.553-3.835C12.902,2.646,9.995,0,6.408,0s-6.495,2.646-6.495,5.911c0,3.264,2.908,5.911,6.495,5.911
		c1.608,0,3.08-0.533,4.215-1.414c-0.018,0.333,0.158,0.746,0.539,1.132l3.49,3.733c0.597,0.604,1.572,0.655,2.168,0.113
		C17.416,14.846,17.359,13.957,16.695,13.413z M6.408,9.852c-2.391,0-4.33-1.764-4.33-3.94c0-2.177,1.938-3.941,4.33-3.941
		s4.33,1.764,4.33,3.941C10.738,8.087,8.8,9.852,6.408,9.852z M3.161,4.926h6.495v1.97H3.161V4.926z"/>
</g>
</svg>
