<?xml version="1.0" encoding="utf-8"?>
<!-- Generated by IcoMoon.io -->
<!DOCTYPE svg PUBLIC "-//W3C//DTD SVG 1.1//EN" "http://www.w3.org/Graphics/SVG/1.1/DTD/svg11.dtd">
<svg version="1.1" xmlns="http://www.w3.org/2000/svg" xmlns:xlink="http://www.w3.org/1999/xlink" width="15" height="15" viewBox="0 0 15 15">
<g>
</g>
	<path d="M0 0.938v13.125h15v-13.125h-15zM5.625 9.375v-2.813h3.75v2.813h-3.75zM9.375 10.313v2.813h-3.75v-2.813h3.75zM9.375 2.813v2.813h-3.75v-2.813h3.75zM4.688 2.813v2.813h-3.75v-2.813h3.75zM0.938 6.563h3.75v2.813h-3.75v-2.813zM10.313 6.563h3.75v2.813h-3.75v-2.813zM10.313 5.625v-2.813h3.75v2.813h-3.75zM0.938 10.313h3.75v2.813h-3.75v-2.813zM10.313 13.125v-2.813h3.75v2.813h-3.75z" fill="#cccccc"></path>
</svg>
