<?xml version="1.0" encoding="utf-8"?>
<!-- Generator: Adobe Illustrator 16.0.4, SVG Export Plug-In . SVG Version: 6.00 Build 0)  -->
<!DOCTYPE svg PUBLIC "-//W3C//DTD SVG 1.1//EN" "http://www.w3.org/Graphics/SVG/1.1/DTD/svg11.dtd">
<svg version="1.1" id="Layer_1" xmlns="http://www.w3.org/2000/svg" xmlns:xlink="http://www.w3.org/1999/xlink" x="0px" y="0px"
	 width="24.263px" height="36.366px" viewBox="0 0 24.263 36.366" enable-background="new 0 0 24.263 36.366" xml:space="preserve">
<g>
	<path fill="#FF9900" d="M6.828,27.947c-1.859-3.872-0.869-6.094,0.564-8.184c1.565-2.296,1.968-4.558,1.968-4.558
		s1.231,1.6,0.742,4.104c2.181-2.423,2.591-6.286,2.256-7.764c4.921,3.436,7.027,10.889,4.19,16.401
		C31.627,19.419,20.3,6.66,18.326,5.221c0.656,1.439,0.783,3.873-0.546,5.053C15.536,1.75,9.98,0,9.98,0
		c0.657,4.397-2.388,9.208-5.316,12.8C4.56,11.046,4.451,9.831,3.53,8.155c-0.201,3.183-2.636,5.785-3.298,8.974
		C-0.659,21.445,0.9,24.61,6.828,27.947L6.828,27.947z"/>
	<text transform="matrix(0.583 0 0 0.583 3.7324 36.1963)" fill="#000000" font-family="'Arial-BoldItalicMT'" font-size="20.6802">3D</text>
</g>
</svg>
