<?xml version="1.0" encoding="utf-8"?>
<!-- Generated by IcoMoon.io -->
<!DOCTYPE svg PUBLIC "-//W3C//DTD SVG 1.1//EN" "http://www.w3.org/Graphics/SVG/1.1/DTD/svg11.dtd">
<svg version="1.1" xmlns="http://www.w3.org/2000/svg" xmlns:xlink="http://www.w3.org/1999/xlink" width="1024" height="1024" viewBox="0 0 1024 1024">
    <g id="icomoon-ignore">
    </g>
    <path fill="#ff9900" d="M321.008 1045.333c-68.245-142.008-31.901-223.379 20.551-300.044 57.44-83.956 72.244-167.065 72.244-167.065s45.153 58.7 27.092 150.508c79.772-88.8 94.824-230.28 82.783-284.464 180.315 126.012 257.376 398.856 153.523 601.065 552.372-312.532 137.399-780.172 65.155-832.851 24.081 52.676 28.648 141.851-20 185.127-82.352-312.276-285.972-376.276-285.972-376.276 24.083 161.044-87.296 337.144-194.696 468.731-3.775-64.216-7.783-108.528-41.549-169.98-7.58 116.656-96.732 211.748-120.873 328.628-32.701 158.287 24.496 274.18 241.748 396.623z"></path>
</svg>
