<svg width="20" height="20" xmlns="http://www.w3.org/2000/svg" xmlns:svg="http://www.w3.org/2000/svg">
 <g>
      <path id="svg_1" d="m16.89458,12.165c-0.87853,0 -1.67147,0.32261 -2.23741,0.84069l-8.38461,-3.71025c0.02557,-0.14208 0.03921,-0.28763 0.03921,-0.43607s-0.01366,-0.29399 -0.03921,-0.43602l8.38461,-3.71025c0.56594,0.51805 1.35888,0.84066 2.23741,0.84066c1.71904,0 3.11258,-1.23331 3.11258,-2.75469s-1.39354,-2.75469 -3.11258,-2.75469s-3.11258,1.23331 -3.11258,2.75469c0,0.14844 0.01369,0.29399 0.03921,0.43604l-8.38461,3.7103c-0.56594,-0.51805 -1.35888,-0.84069 -2.23741,-0.84069c-1.71904,0 -3.11258,1.23334 -3.11258,2.75469c0,1.52141 1.39354,2.75469 3.11258,2.75469c0.87853,0 1.67147,-0.32261 2.23741,-0.84066l8.38461,3.71025c-0.02552,0.14203 -0.03921,0.28758 -0.03921,0.43604c0,1.52142 1.39354,2.75469 3.11258,2.75469s3.11258,-1.23328 3.11258,-2.75469c0,-1.52134 -1.39354,-2.75469 -3.11258,-2.75469l0,-0.00003z" fill="#7f7f7f" transform="rotate(-179.86581420898438 10.046879768371582,8.859395027160643) "/>
 </g>
</svg>