<?xml version="1.0" encoding="utf-8"?>
<!-- Generated by IcoMoon.io -->
<!DOCTYPE svg PUBLIC "-//W3C//DTD SVG 1.1//EN" "http://www.w3.org/Graphics/SVG/1.1/DTD/svg11.dtd">
<svg version="1.1" xmlns="http://www.w3.org/2000/svg" xmlns:xlink="http://www.w3.org/1999/xlink" width="10" height="10" viewBox="0 0 10 10">
<g>
</g>
	<path d="M9.375 4.375c-0.345 0-0.625 0.28-0.625 0.625v3.75h-7.5v-3.75c0-0.345-0.28-0.625-0.625-0.625s-0.625 0.28-0.625 0.625v4.375c0 0.345 0.28 0.625 0.625 0.625h8.75c0.345 0 0.625-0.28 0.625-0.625v-4.375c0-0.345-0.28-0.625-0.625-0.625zM5.625 4.375v-3.826c0-0.303-0.28-0.549-0.625-0.549s-0.625 0.246-0.625 0.549v3.826h-1.875l2.5 2.5 2.5-2.5h-1.875z" fill="grey" />
</svg>
