<svg width="45" height="45" xmlns="http://www.w3.org/2000/svg" xmlns:svg="http://www.w3.org/2000/svg">
 <g>
  <path fill="#7f7f7f" id="svg_2" d="m40.8125,16.25l-13.0625,0l0,-13.0625c0,-0.6558 -0.5317,-1.1875 -1.1875,-1.1875l-7.125,0c-0.6558,0 -1.1875,0.5317 -1.1875,1.1875l0,13.0625l-13.0625,0c-0.6558,0 -1.1875,0.5317 -1.1875,1.1875l0,7.125c0,0.6558 0.5317,1.1875 1.1875,1.1875l13.0625,0l0,13.0625c0,0.6558 0.5317,1.1875 1.1875,1.1875l7.125,0c0.6558,0 1.1875,-0.5317 1.1875,-1.1875l0,-13.0625l13.0625,0c0.65579,0 1.1875,-0.5317 1.1875,-1.1875l0,-7.125c0,-0.6558 -0.53171,-1.1875 -1.1875,-1.1875z"/>
</g>
</svg>