<svg width="20" height="20" xmlns="http://www.w3.org/2000/svg" xmlns:svg="http://www.w3.org/2000/svg">
 <g>
   <path d="m8.375,0c-3.65291,0 -6.81911,3.14946 -8.375,7.75c1.55589,4.60054 4.72209,7.75 8.375,7.75c3.65284,0 6.81905,-3.14946 8.375,-7.75c-1.55585,-4.60054 -4.72216,-7.75 -8.375,-7.75zm4.12943,4.11002c0.9841,0.92937 1.818,2.17421 2.44436,3.63998c-0.62636,1.46577 -1.46029,2.71061 -2.44439,3.64002c-1.23652,1.16773 -2.66446,1.78497 -4.1294,1.78497c-1.46497,0 -2.89291,-0.61724 -4.12943,-1.78502c-0.98406,-0.92933 -1.81797,-2.17417 -2.44436,-3.63998c0.62636,-1.46581 1.46029,-2.71066 2.44436,-3.63998c0.06409,-0.06055 0.12883,-0.1192 0.19396,-0.17679c-0.16289,0.66185 -0.25203,1.37615 -0.25203,2.12146c0,3.42415 1.87482,6.2 4.1875,6.2s4.1875,-2.77586 4.1875,-6.2c0,-0.74531 -0.08915,-1.45962 -0.25204,-2.12152c0.0651,0.05759 0.12985,0.1163 0.19397,0.17685l0,0zm-4.12943,1.16967c0,1.28409 -0.70304,2.325 -1.57031,2.325s-1.57031,-1.04092 -1.57031,-2.325s0.70304,-2.32499 1.57031,-2.32499s1.57031,1.04092 1.57031,2.32499z" id="svg_19" fill="#7f7f7f"/>
 </g>
</svg>